<!-- Generated by IcoMoon.io -->
<svg version="1.1" xmlns="http://www.w3.org/2000/svg" width="46" height="46" viewBox="0 0 46 46">
<title>javascript</title>
<path fill="#f7df1e" d="M0 0h46v46h-46zM42.232 35.029c-0.335-2.099-1.702-3.862-5.756-5.507-1.411-0.661-2.978-1.121-3.444-2.185-0.174-0.633-0.201-0.977-0.088-1.351 0.288-1.238 1.754-1.61 2.904-1.265 0.748 0.23 1.438 0.805 1.871 1.725 1.982-1.296 1.982-1.296 3.364-2.156-0.517-0.805-0.774-1.152-1.123-1.495-1.207-1.351-2.816-2.041-5.432-1.982l-1.351 0.171c-1.296 0.316-2.53 1.006-3.278 1.926-2.185 2.474-1.554 6.787 1.091 8.569 2.616 1.955 6.442 2.384 6.931 4.226 0.46 2.242-1.667 2.961-3.768 2.703-1.554-0.345-2.415-1.123-3.364-2.561l-3.508 2.014c0.402 0.92 0.863 1.321 1.552 2.126 3.335 3.366 11.672 3.193 13.169-1.924 0.056-0.173 0.46-1.351 0.142-3.163zM25.014 21.143h-4.309c0 3.715-0.017 7.406-0.017 11.126 0 2.361 0.121 4.529-0.264 5.196-0.633 1.321-2.262 1.152-3.002 0.92-0.759-0.376-1.144-0.893-1.591-1.639-0.121-0.201-0.211-0.376-0.243-0.376l-3.498 2.156c0.585 1.208 1.438 2.246 2.538 2.908 1.639 0.977 3.841 1.294 6.147 0.776 1.501-0.433 2.795-1.324 3.471-2.704 0.977-1.782 0.771-3.968 0.761-6.413 0.023-3.937 0-7.876 0-11.843z"></path>
</svg>
