<!-- Generated by IcoMoon.io -->
<svg version="1.1" xmlns="http://www.w3.org/2000/svg" width="46" height="46" viewBox="0 0 46 46">
<title>git</title>
<path fill="#f05032" d="M45.13 20.949l-20.085-20.083c-1.158-1.156-3.032-1.156-4.194 0l-4.161 4.169 5.29 5.29c1.236-0.412 2.643-0.134 3.621 0.845 0.989 0.987 1.261 2.411 0.84 3.642l5.095 5.098c1.236-0.427 2.658-0.149 3.642 0.834 1.382 1.38 1.382 3.611 0 4.991-1.378 1.378-3.605 1.378-4.983 0-1.033-1.037-1.292-2.563-0.774-3.826l-4.771-4.746v12.506c0.337 0.165 0.655 0.389 0.935 0.667 1.367 1.382 1.367 3.609 0 4.983-1.378 1.382-3.621 1.382-5.001 0-1.378-1.378-1.378-3.601 0-4.979 0.349-0.345 0.742-0.606 1.16-0.778v-12.629c-0.416-0.174-0.813-0.425-1.15-0.769-1.045-1.045-1.296-2.572-0.759-3.851l-5.198-5.223-13.773 13.764c-1.15 1.16-1.15 3.036 0 4.196l20.087 20.081c1.158 1.158 3.032 1.158 4.19 0l19.991-19.991c1.16-1.156 1.16-3.032 0-4.192z"></path>
</svg>
