<!-- Generated by IcoMoon.io -->
<svg version="1.1" xmlns="http://www.w3.org/2000/svg" width="46" height="46" viewBox="0 0 46 46">
<title>jest</title>
<path fill="#c21325" d="M42.648 22.655c-0.005-2.758-1.878-5.077-4.42-5.76l-0.042-0.010 5.727-16.886h-28.38l5.742 16.94c-2.503 0.747-4.298 3.027-4.301 5.727v0c0 1.999 0.997 3.77 2.517 4.861-0.635 0.889-1.318 1.669-2.070 2.377l-0.008 0.008c-1.374 1.31-2.995 2.376-4.784 3.119l-0.103 0.038c-1.598-1.079-2.29-2.982-1.666-4.688 2.449-0.778 4.193-3.032 4.193-5.693 0-3.284-2.655-5.947-5.936-5.961h-0.001c-3.293 0.004-5.962 2.673-5.967 5.966v0c0 1.625 0.665 3.116 1.731 4.182-0.092 0.186-0.186 0.374-0.28 0.573-0.891 1.838-1.903 3.916-2.29 6.246-0.772 4.661 0.493 8.403 3.544 10.521 1.566 1.116 3.518 1.784 5.626 1.784 0.006 0 0.013 0 0.019 0h-0.001c3.502 0 7.057-1.758 10.494-3.463 2.451-1.211 4.981-2.476 7.471-3.090 0.92-0.226 1.878-0.358 2.89-0.506 2.051-0.293 4.169-0.598 6.072-1.706 2.164-1.256 3.709-3.374 4.174-5.871l0.008-0.053c0.334-1.905 0-3.822-0.851-5.501 0.571-0.92 0.891-1.997 0.891-3.155zM40.051 22.655c0 1.85-1.505 3.354-3.354 3.354-1.852-0.005-3.351-1.508-3.351-3.36 0-1.063 0.494-2.011 1.264-2.626l0.007-0.005 0.013-0.013c0.107-0.080 0.226-0.161 0.345-0.24 0 0 0.015 0 0.015-0.013 0.054-0.027 0.105-0.067 0.159-0.096 0.013 0 0.027-0.011 0.040-0.011 0.054-0.027 0.121-0.054 0.186-0.080 0.067-0.027 0.134-0.052 0.188-0.079 0.013 0 0.025-0.013 0.038-0.013 0.054-0.013 0.107-0.040 0.161-0.054 0.013 0 0.038-0.013 0.054-0.013 0.065-0.013 0.119-0.027 0.186-0.038h0.013l0.199-0.042c0.013 0 0.038 0 0.054-0.013 0.054 0 0.105-0.013 0.159-0.013h0.067c0.067 0 0.134-0.013 0.213-0.013h0.173c0.054 0 0.096 0 0.148 0.013h0.027c0.105 0.013 0.213 0.027 0.32 0.054 1.538 0.338 2.673 1.688 2.676 3.304v0zM19.249 2.664h20.949l-4.809 14.183c-0.199 0.038-0.399 0.105-0.598 0.172l-5.060-10.321-5.075 10.254c-0.199-0.065-0.414-0.105-0.627-0.146zM28.771 21.495c-0.26-1.274-0.9-2.37-1.794-3.193l-0.004-0.004 2.756-5.566 2.783 5.687c-0.824 0.824-1.424 1.878-1.664 3.076zM22.099 19.391c0.065-0.013 0.119-0.027 0.186-0.038h0.038c0.056-0.015 0.107-0.015 0.161-0.029h0.054c0.054 0 0.094-0.013 0.146-0.013h0.519c0.054 0 0.094 0.013 0.134 0.013 0.027 0 0.038 0 0.067 0.013 0.052 0.013 0.092 0.013 0.146 0.027 0.013 0 0.027 0 0.054 0.013l0.186 0.038h0.013c0.054 0.015 0.107 0.029 0.159 0.056 0.013 0 0.027 0.013 0.054 0.013 0.040 0.013 0.094 0.027 0.134 0.052 0.013 0 0.027 0.013 0.038 0.013 0.054 0.027 0.107 0.040 0.161 0.067h0.013c0.066 0.025 0.123 0.057 0.174 0.095l-0.002-0.001h0.013c0.054 0.027 0.107 0.065 0.161 0.092 0.013 0 0.013 0.013 0.025 0.013 0.054 0.027 0.096 0.067 0.148 0.094l0.013 0.013c0.159 0.119 0.307 0.253 0.452 0.385l0.013 0.013c0.57 0.599 0.92 1.411 0.92 2.305 0 0.004 0 0.008-0 0.013v-0.001c-0.063 1.805-1.541 3.245-3.356 3.245s-3.293-1.439-3.356-3.239l-0-0.006c0-0.003 0-0.006 0-0.009 0-1.557 1.065-2.865 2.507-3.234l0.023-0.005zM8.993 19.297c1.851 0 3.356 1.506 3.356 3.356s-1.505 3.356-3.354 3.356-3.358-1.505-3.358-3.354 1.507-3.358 3.356-3.358zM39.972 30.845c-0.322 1.763-1.392 3.227-2.862 4.073l-0.029 0.015c-1.453 0.84-3.237 1.106-5.116 1.372-1.252 0.161-2.319 0.357-3.367 0.602l0.224-0.044c-2.77 0.68-5.432 2.012-8.016 3.291-3.304 1.637-6.421 3.182-9.309 3.182-0.013 0-0.028 0-0.043 0-1.534 0-2.953-0.494-4.105-1.333l0.020 0.014c-2.931-2.024-2.785-5.819-2.438-7.897 0.32-1.945 1.211-3.768 2.064-5.514 0.054-0.105 0.094-0.199 0.148-0.307 0.291 0.107 0.598 0.188 0.918 0.241-0.506 2.823 0.931 5.739 3.73 7.178l0.506 0.266 0.544-0.199c2.331-0.826 4.489-2.172 6.394-3.969 1.037-0.968 1.95-2.047 2.728-3.222l0.041-0.067c0.307 0.052 0.613 0.065 0.92 0.065 2.756-0.007 5.072-1.878 5.756-4.418l0.010-0.042h2.237c0.688 2.586 3.009 4.46 5.767 4.46 0.001 0 0.001 0 0.002 0h-0c1.104 0 2.127-0.307 3.009-0.824 0.345 0.997 0.452 2.037 0.266 3.076z"></path>
</svg>
