<!-- Generated by IcoMoon.io -->
<svg version="1.1" xmlns="http://www.w3.org/2000/svg" width="46" height="46" viewBox="0 0 46 46">
<title>linux</title>
<path fill="#fcc624" d="M23.964 0c-0.297 0-0.604 0.015-0.918 0.040-8.102 0.638-5.953 9.213-6.076 12.071-0.148 2.095-0.575 3.745-2.014 5.79-1.696 2.014-4.077 5.271-5.206 8.665-0.533 1.595-0.786 3.228-0.55 4.771-0.075 0.065-0.146 0.13-0.213 0.259-0.498 0.514-0.861 1.152-1.269 1.608-0.381 0.381-0.93 0.512-1.528 0.767-0.6 0.261-1.261 0.516-1.656 1.305-0.173 0.36-0.261 0.753-0.253 1.152 0 0.381 0.052 0.769 0.105 1.027 0.111 0.765 0.222 1.397 0.075 1.859-0.475 1.303-0.535 2.197-0.201 2.846 0.334 0.64 1.025 0.899 1.8 1.152 1.554 0.383 3.661 0.259 5.319 1.148 1.775 0.895 3.577 1.286 5.014 0.901 1.008-0.22 1.859-0.887 2.315-1.811 1.125-0.006 2.357-0.516 4.332-0.64 1.34-0.111 3.017 0.512 4.941 0.381 0.048 0.259 0.121 0.381 0.219 0.64l0.006 0.006c0.749 1.491 2.133 2.17 3.611 2.053 1.478-0.115 3.051-1.027 4.326-2.503 1.209-1.466 3.226-2.078 4.558-2.881 0.667-0.381 1.206-0.899 1.244-1.635 0.044-0.767-0.381-1.556-1.369-2.639v-0.186l-0.006-0.006c-0.326-0.383-0.479-1.025-0.648-1.775-0.163-0.769-0.349-1.507-0.943-2.005h-0.006c-0.113-0.103-0.236-0.128-0.36-0.259-0.107-0.073-0.232-0.119-0.364-0.123 0.826-2.45 0.506-4.887-0.332-7.080-1.022-2.703-2.808-5.056-4.169-6.676-1.526-1.926-3.021-3.751-2.992-6.457 0.052-4.125 0.454-11.755-6.793-11.766zM24.978 6.526h0.025c0.408 0 0.759 0.119 1.119 0.38 0.366 0.259 0.633 0.636 0.841 1.022 0.201 0.496 0.303 0.88 0.318 1.388 0-0.038 0.011-0.077 0.011-0.113v0.199c-0.004-0.013-0.008-0.029-0.008-0.040l-0.008-0.046c-0.004 0.466-0.102 0.926-0.288 1.353-0.090 0.24-0.228 0.46-0.408 0.642-0.056-0.031-0.109-0.057-0.169-0.080-0.201-0.086-0.381-0.123-0.546-0.255-0.136-0.054-0.278-0.098-0.42-0.127 0.094-0.113 0.278-0.255 0.349-0.38 0.102-0.245 0.157-0.506 0.169-0.771v-0.036c0.004-0.259-0.035-0.519-0.117-0.767-0.086-0.259-0.194-0.385-0.351-0.64-0.161-0.127-0.32-0.253-0.512-0.253h-0.031c-0.178 0-0.337 0.057-0.502 0.253-0.182 0.18-0.318 0.397-0.393 0.64-0.102 0.243-0.161 0.506-0.173 0.767v0.036c0.004 0.171 0.015 0.343 0.038 0.512-0.37-0.128-0.839-0.259-1.163-0.387-0.019-0.125-0.031-0.253-0.034-0.381v-0.038c-0.015-0.506 0.082-1.008 0.288-1.474 0.157-0.42 0.445-0.778 0.824-1.022 0.328-0.247 0.726-0.381 1.139-0.381zM19.301 6.639h0.069c0.272 0 0.518 0.092 0.765 0.259 0.28 0.247 0.506 0.552 0.659 0.891 0.172 0.381 0.27 0.769 0.293 1.278v0.008c0.013 0.257 0.011 0.385-0.004 0.51v0.153c-0.057 0.013-0.107 0.034-0.159 0.046-0.291 0.105-0.525 0.259-0.753 0.383 0.023-0.171 0.025-0.343 0.006-0.512v-0.029c-0.023-0.255-0.075-0.381-0.157-0.638-0.059-0.196-0.169-0.37-0.318-0.512-0.094-0.086-0.22-0.13-0.351-0.123h-0.040c-0.136 0.011-0.249 0.079-0.357 0.253-0.123 0.148-0.201 0.328-0.23 0.518-0.052 0.207-0.067 0.42-0.044 0.634v0.027c0.023 0.259 0.071 0.385 0.155 0.64 0.086 0.257 0.186 0.383 0.316 0.514 0.021 0.017 0.040 0.035 0.065 0.046-0.134 0.109-0.224 0.134-0.337 0.261-0.071 0.054-0.153 0.115-0.251 0.13-0.199-0.24-0.376-0.498-0.527-0.771-0.184-0.403-0.28-0.839-0.297-1.278-0.033-0.433 0.021-0.866 0.153-1.28 0.105-0.378 0.291-0.726 0.542-1.025 0.245-0.255 0.498-0.383 0.801-0.383zM21.929 9.909c0.634 0 1.403 0.125 2.329 0.765 0.562 0.383 1.002 0.516 2.018 0.897h0.006c0.489 0.261 0.776 0.51 0.916 0.765v-0.251c0.14 0.282 0.149 0.609 0.031 0.901-0.236 0.596-0.989 1.234-2.039 1.616v0.004c-0.514 0.259-0.96 0.638-1.485 0.891-0.529 0.259-1.127 0.56-1.94 0.512-0.291 0.015-0.585-0.029-0.859-0.128-0.211-0.115-0.418-0.241-0.617-0.379-0.374-0.259-0.696-0.636-1.173-0.891v-0.010h-0.010c-0.767-0.471-1.181-0.981-1.315-1.363-0.132-0.514-0.010-0.899 0.37-1.15 0.429-0.259 0.728-0.519 0.926-0.644 0.199-0.142 0.274-0.196 0.337-0.251h0.004v-0.006c0.324-0.387 0.836-0.899 1.608-1.152 0.266-0.069 0.564-0.125 0.893-0.125zM27.293 14.017c0.688 2.716 2.294 6.66 3.327 8.573 0.548 1.023 1.639 3.18 2.112 5.796 0.299-0.010 0.631 0.035 0.983 0.123 1.238-3.203-1.047-6.645-2.087-7.602-0.424-0.385-0.445-0.642-0.236-0.642 1.129 1.023 2.616 3.013 3.155 5.284 0.247 1.025 0.305 2.116 0.040 3.201 0.128 0.054 0.259 0.117 0.393 0.128 1.978 1.023 2.708 1.798 2.358 2.946v-0.082c-0.117-0.006-0.23 0-0.347 0h-0.029c0.289-0.895-0.349-1.581-2.041-2.346-1.754-0.767-3.155-0.644-3.394 0.891-0.013 0.082-0.023 0.127-0.033 0.259-0.13 0.044-0.266 0.102-0.401 0.123-0.824 0.514-1.269 1.282-1.52 2.275-0.249 1.022-0.326 2.216-0.393 3.582v0.006c-0.040 0.64-0.328 1.606-0.611 2.589-2.875 2.055-6.862 2.948-10.252 0.64-0.213-0.37-0.471-0.717-0.77-1.022-0.142-0.24-0.322-0.454-0.527-0.64 0.349 0 0.648-0.056 0.891-0.128 0.278-0.128 0.493-0.36 0.602-0.64 0.207-0.512 0-1.336-0.661-2.229-0.661-0.895-1.784-1.907-3.427-2.915-1.207-0.765-1.89-1.668-2.204-2.676-0.316-1.024-0.274-2.080-0.029-3.153 0.47-2.051 1.673-4.044 2.442-5.296 0.205-0.125 0.071 0.259-0.782 1.867-0.759 1.439-2.187 4.786-0.234 7.387 0.073-1.896 0.494-3.766 1.24-5.512 1.081-2.45 3.341-6.716 3.519-10.097 0.092 0.069 0.416 0.259 0.554 0.387 0.418 0.255 0.728 0.638 1.131 0.891 0.404 0.385 0.914 0.642 1.679 0.642 0.075 0.006 0.144 0.011 0.213 0.011 0.788 0 1.397-0.257 1.909-0.514 0.556-0.257 0.999-0.64 1.418-0.767h0.010c0.895-0.259 1.602-0.771 2.003-1.342zM31.483 31.186c0.071 1.152 0.657 2.386 1.691 2.639 1.127 0.257 2.748-0.638 3.433-1.466l0.404-0.017c0.604-0.015 1.106 0.019 1.623 0.512l0.006 0.006c0.399 0.381 0.585 1.018 0.749 1.679 0.163 0.769 0.295 1.495 0.784 2.043 0.931 1.010 1.236 1.736 1.219 2.185l0.006-0.011v0.035l-0.006-0.023c-0.029 0.502-0.355 0.759-0.954 1.14-1.208 0.769-3.346 1.365-4.709 3.009-1.184 1.413-2.628 2.183-3.902 2.283-1.273 0.102-2.371-0.383-3.017-1.721l-0.010-0.006c-0.403-0.769-0.23-1.965 0.107-3.239 0.337-1.28 0.82-2.578 0.887-3.638 0.071-1.369 0.146-2.559 0.374-3.477 0.23-0.891 0.59-1.528 1.229-1.886zM10.754 31.28h0.019c0.102 0 0.201 0.010 0.301 0.027 0.721 0.105 1.353 0.638 1.961 1.441l1.744 3.189 0.006 0.006c0.466 1.022 1.445 2.039 2.279 3.139 0.832 1.146 1.476 2.168 1.397 3.009v0.011c-0.109 1.426-0.918 2.2-2.156 2.48-1.236 0.259-2.913 0.004-4.59-0.889-1.855-1.027-4.059-0.899-5.476-1.154-0.707-0.127-1.171-0.385-1.386-0.769-0.213-0.381-0.217-1.152 0.236-2.357v-0.006l0.004-0.006c0.224-0.64 0.058-1.443-0.052-2.145-0.105-0.769-0.159-1.359 0.082-1.802 0.307-0.64 0.759-0.765 1.321-1.022 0.565-0.259 1.229-0.387 1.756-0.899h0.004v-0.006c0.491-0.514 0.853-1.152 1.28-1.606 0.364-0.385 0.728-0.644 1.271-0.644zM24.476 13.888c-0.834 0.385-1.811 1.025-2.852 1.025-1.039 0-1.859-0.512-2.451-0.893-0.297-0.257-0.537-0.514-0.717-0.642-0.314-0.257-0.276-0.64-0.142-0.64 0.209 0.031 0.247 0.259 0.381 0.385 0.184 0.126 0.412 0.381 0.692 0.638 0.558 0.383 1.303 0.895 2.235 0.895 0.93 0 2.018-0.512 2.68-0.893 0.374-0.259 0.853-0.64 1.242-0.895 0.299-0.263 0.286-0.514 0.535-0.514 0.247 0.031 0.065 0.257-0.282 0.638-0.347 0.259-0.884 0.642-1.323 0.897zM22.402 10.852v-0.042c-0.012-0.036 0.025-0.081 0.056-0.096 0.142-0.082 0.345-0.052 0.498 0.008 0.121 0 0.307 0.128 0.287 0.259-0.011 0.094-0.163 0.127-0.259 0.127-0.105 0-0.176-0.082-0.27-0.13-0.1-0.034-0.28-0.015-0.312-0.125zM21.346 10.852c-0.038 0.111-0.217 0.094-0.318 0.127-0.090 0.048-0.165 0.13-0.266 0.13-0.098 0-0.251-0.036-0.263-0.13-0.017-0.127 0.169-0.255 0.287-0.255 0.155-0.059 0.353-0.090 0.496-0.010 0.036 0.017 0.069 0.058 0.057 0.096v0.040z"></path>
</svg>
