<!-- Generated by IcoMoon.io -->
<svg version="1.1" xmlns="http://www.w3.org/2000/svg" width="46" height="46" viewBox="0 0 46 46">
<title>mongodb</title>
<path fill="#47a248" d="M32.928 18.243c-2.421-10.657-8.13-14.158-8.744-15.498-0.675-0.945-1.405-2.745-1.405-2.745-0.004 0.036-0.008 0.059-0.010 0.094v0.025h-0.002c-0.004 0.029-0.006 0.048-0.008 0.075v0.029h-0.004c0 0.019-0.004 0.035-0.004 0.050v0.050h-0.006c-0.002 0.015-0.002 0.035-0.006 0.048v0.040h-0.004c0 0.013 0 0.029-0.004 0.040v0.038h-0.004c0 0.019-0.002 0.042-0.004 0.061v0.004c-0.006 0.033-0.011 0.065-0.017 0.096v0.015h-0.004c-0.002 0.008-0.006 0.015-0.006 0.023v0.033h-0.006v0.042h-0.010v0.034h-0.010v0.040h-0.008v0.036h-0.008v0.033h-0.011v0.027h-0.008v0.035h-0.008v0.027h-0.010v0.025h-0.006v0.029h-0.008c-0.002 0.002-0.002 0.006-0.002 0.008v0.019h-0.006c-0.002 0.004-0.002 0.008-0.002 0.012v0.011h-0.004c-0.002 0.006-0.004 0.015-0.004 0.019-0.006 0.013-0.013 0.027-0.019 0.040v0.004c-0.004 0.004-0.008 0.010-0.010 0.013v0.015h-0.008v0.015h-0.010v0.015h-0.006v0.019h-0.011v0.027h-0.008v0.008h-0.008v0.015h-0.008v0.021h-0.008v0.015h-0.011v0.021h-0.008v0.015h-0.010v0.015h-0.006v0.019h-0.010v0.015h-0.008v0.011h-0.008v0.015h-0.011v0.017h-0.008v0.012h-0.010v0.015h-0.008v0.021h-0.010v0.008h-0.006v0.015h-0.011v0.008h-0.008v0.019h-0.008v0.008h-0.008v0.015h-0.010v0.012h-0.006l-0.004 0.008v0.008h-0.004c-0.002 0.004-0.004 0.004-0.004 0.008v0.002h-0.002c-0.002 0.006-0.004 0.010-0.008 0.013v0.006h-0.002c-0.010 0.012-0.015 0.023-0.023 0.034v0.002c-0.004 0.004-0.013 0.012-0.017 0.019v0.004h-0.002c-0.002 0.002-0.006 0.004-0.006 0.006v0.006h-0.004l-0.006 0.006v0.002h-0.002c0 0.002-0.004 0.004-0.006 0.008v0.008h-0.006l-0.004 0.004v0.004h-0.004c0 0.004-0.004 0.004-0.004 0.006v0.006h-0.008c0 0.002-0.002 0.004-0.004 0.006v0.012h-0.006v0.008h-0.008v0.012h-0.008v0.015h-0.010v-0.015h-0.010v0.008h-0.008v0.012h-0.010v0.015h-0.010v0.008h-0.008v0.012h-0.008v0.008h-0.008v0.015h-0.011v0.008h-0.008v0.011h-0.010v0.008h-0.008v0.010h-0.010v0.019h-0.004v0.008h-0.011v0.010h-0.008v0.004h-0.008v0.008h-0.010v0.019h-0.008v0.008h-0.010v0.008h-0.008v0.011h-0.010v0.008h-0.010v0.008h-0.008v0.008h-0.008v0.019h-0.008v0.010h-0.011v0.008h-0.008v0.008h-0.010v0.011h-0.008v0.008h-0.010v0.013h-0.008v0.008h-0.011v0.012h-0.004v0.008h-0.008v0.008h-0.010v0.008h-0.008v0.011h-0.010v0.008h-0.006c-0.002 0.002-0.002 0.004-0.002 0.004v0.004h-0.004l-0.008 0.008c0 0-0.004 0.004-0.008 0.006v0.011h-0.008v0.010h-0.008v0.008h-0.008v0.008h-0.006l-0.006 0.006v0.006h-0.004l-0.004 0.004v0.006h-0.004c-0.010 0.011-0.013 0.019-0.027 0.031-0.004 0.004-0.015 0.013-0.023 0.019-0.023 0.015-0.052 0.040-0.075 0.061-0.015 0.010-0.031 0.023-0.042 0.033v0.002h-0.002c-0.031 0.025-0.059 0.048-0.094 0.075v0.002c-0.046 0.038-0.090 0.075-0.142 0.119v-0.002h-0.004c-0.109 0.090-0.224 0.192-0.357 0.305v0.002h-0.002c-0.324 0.284-0.709 0.648-1.14 1.089l-0.036 0.036c-2.607 2.697-6.714 8.316-7.147 17.398-0.038 0.751-0.031 1.482 0.011 2.193v0.017c0.209 3.578 1.332 6.634 2.737 9.116v0.002c0.56 0.989 1.163 1.888 1.775 2.693v0.002c2.112 2.789 4.268 4.441 4.819 4.841 0.845 1.961 0.767 5.326 0.767 5.326l1.234 0.412c0 0-0.251-3.26 0.102-4.834 0.109-0.493 0.368-0.912 0.669-1.269 0.203-0.144 0.805-0.577 1.528-1.236 0.035-0.036 0.054-0.069 0.084-0.103 2.915-2.718 8.361-9.411 6.494-20.315z"></path>
</svg>
