<!-- Generated by IcoMoon.io -->
<svg version="1.1" xmlns="http://www.w3.org/2000/svg" width="46" height="46" viewBox="0 0 46 46">
<title>mysql</title>
<path fill="#4479a1" d="M31.443 10.879c-0.22 0-0.37 0.027-0.525 0.063v0.025h0.027c0.104 0.199 0.28 0.345 0.41 0.523 0.104 0.205 0.192 0.41 0.295 0.613l0.027-0.029c0.18-0.127 0.268-0.33 0.268-0.638-0.077-0.090-0.088-0.18-0.153-0.268-0.077-0.128-0.241-0.192-0.349-0.289zM11.059 36.167h-1.777c-0.057-2.994-0.236-5.807-0.518-8.452h-0.015l-2.702 8.452h-1.351l-2.683-8.452h-0.019c-0.197 2.536-0.322 5.353-0.374 8.452h-1.62c0.105-3.768 0.368-7.302 0.786-10.599h2.204l2.559 7.789h0.015l2.582-7.789h2.099c0.464 3.862 0.736 7.398 0.815 10.599zM18.758 28.347c-0.725 3.92-1.679 6.772-2.86 8.548-0.924 1.372-1.936 2.057-3.034 2.057-0.293 0-0.652-0.088-1.085-0.265v-0.947c0.211 0.033 0.46 0.050 0.74 0.050 0.514 0 0.926-0.144 1.24-0.425 0.378-0.345 0.565-0.732 0.565-1.16 0-0.297-0.148-0.901-0.441-1.809l-1.944-6.049h1.744l1.393 4.523c0.314 1.027 0.447 1.744 0.393 2.152 0.767-2.039 1.3-4.268 1.6-6.676zM42.381 36.167h-5.041v-10.599h1.696v9.296h3.345zM36.018 36.426l-1.947-0.958c0.173-0.146 0.339-0.303 0.489-0.479 0.83-0.97 1.242-2.411 1.242-4.318 0-3.508-1.376-5.263-4.13-5.263-1.349 0-2.404 0.445-3.162 1.336-0.824 0.974-1.238 2.407-1.238 4.303 0 1.863 0.364 3.232 1.1 4.102 0.671 0.786 1.681 1.179 3.034 1.179 0.506 0 0.97-0.063 1.39-0.188l2.54 1.48zM29.708 34.046c-0.431-0.69-0.646-1.802-0.646-3.327 0-2.67 0.813-4.006 2.434-4.006 0.849 0 1.476 0.32 1.873 0.958 0.429 0.694 0.644 1.794 0.644 3.302 0 2.691-0.813 4.040-2.434 4.040-0.853 0-1.476-0.32-1.871-0.968zM26.53 33.231c0 0.901-0.33 1.641-0.989 2.216s-1.539 0.863-2.653 0.863c-1.041 0-2.039-0.33-3.015-0.987l0.454-0.912c0.84 0.422 1.597 0.629 2.281 0.629 0.636 0 1.137-0.14 1.501-0.422 0.36-0.282 0.575-0.678 0.575-1.179 0-0.633-0.441-1.169-1.242-1.62-0.744-0.408-2.229-1.259-2.229-1.259-0.809-0.588-1.211-1.219-1.211-2.256 0-0.863 0.301-1.552 0.901-2.080 0.604-0.533 1.38-0.795 2.338-0.795 0.981 0 1.878 0.261 2.683 0.786l-0.408 0.912c-0.69-0.291-1.37-0.441-2.039-0.441-0.542 0-0.962 0.13-1.253 0.395-0.293 0.261-0.475 0.594-0.475 1.004 0 0.629 0.448 1.169 1.277 1.629 0.753 0.412 2.275 1.284 2.275 1.284 0.83 0.585 1.242 1.207 1.231 2.233zM44.513 22.015c-1.025-0.027-1.821 0.077-2.486 0.36-0.192 0.077-0.498 0.077-0.525 0.32 0.105 0.102 0.121 0.268 0.211 0.41 0.153 0.257 0.418 0.6 0.663 0.78 0.268 0.211 0.537 0.414 0.818 0.594 0.498 0.307 1.064 0.489 1.553 0.797 0.278 0.18 0.562 0.408 0.843 0.6 0.14 0.096 0.23 0.268 0.41 0.33v-0.038c-0.088-0.115-0.115-0.282-0.201-0.41-0.128-0.128-0.257-0.243-0.383-0.37-0.372-0.498-0.834-0.933-1.332-1.294-0.41-0.28-1.307-0.671-1.476-1.14l-0.025-0.027c0.28-0.025 0.613-0.127 0.882-0.203 0.435-0.115 0.834-0.090 1.284-0.203 0.203-0.052 0.408-0.115 0.613-0.18v-0.115c-0.23-0.23-0.403-0.542-0.64-0.757-0.652-0.565-1.374-1.116-2.116-1.577-0.403-0.257-0.912-0.422-1.336-0.64-0.153-0.077-0.41-0.115-0.498-0.243-0.23-0.28-0.364-0.652-0.527-0.985-0.368-0.705-0.728-1.485-1.048-2.229-0.23-0.502-0.37-1.002-0.652-1.462-1.322-2.179-2.754-3.5-4.956-4.792-0.473-0.268-1.041-0.383-1.641-0.525-0.32-0.015-0.64-0.038-0.958-0.052-0.211-0.090-0.414-0.334-0.594-0.45-0.728-0.46-2.614-1.457-3.151-0.138-0.345 0.832 0.512 1.652 0.809 2.074 0.22 0.293 0.498 0.629 0.652 0.958 0.090 0.222 0.115 0.45 0.205 0.682 0.203 0.563 0.397 1.192 0.665 1.719 0.14 0.268 0.293 0.55 0.473 0.792 0.103 0.14 0.28 0.205 0.32 0.435-0.18 0.261-0.192 0.64-0.295 0.958-0.46 1.451-0.28 3.245 0.372 4.313 0.205 0.318 0.694 1.023 1.347 0.753 0.575-0.23 0.449-0.958 0.613-1.6 0.038-0.153 0.013-0.255 0.092-0.358v0.029c0.18 0.36 0.36 0.703 0.525 1.064 0.395 0.629 1.085 1.28 1.662 1.715 0.307 0.23 0.55 0.629 0.933 0.77v-0.038h-0.029c-0.082-0.111-0.192-0.165-0.295-0.255-0.23-0.23-0.489-0.512-0.671-0.767-0.537-0.723-1.010-1.514-1.432-2.335-0.211-0.402-0.387-0.836-0.556-1.232-0.077-0.153-0.077-0.383-0.205-0.46-0.192 0.28-0.473 0.523-0.613 0.868-0.243 0.552-0.268 1.231-0.36 1.936-0.052 0.013-0.027 0-0.052 0.027-0.41-0.1-0.55-0.525-0.703-0.882-0.383-0.91-0.447-2.373-0.115-3.421 0.090-0.268 0.473-1.116 0.32-1.372-0.081-0.243-0.333-0.383-0.473-0.581-0.167-0.238-0.345-0.546-0.46-0.818-0.307-0.717-0.46-1.51-0.793-2.227-0.153-0.332-0.422-0.678-0.64-0.983-0.243-0.345-0.512-0.588-0.705-0.997-0.063-0.14-0.153-0.372-0.052-0.525 0.027-0.104 0.081-0.144 0.18-0.173 0.169-0.138 0.642 0.042 0.809 0.119 0.473 0.192 0.872 0.372 1.269 0.64 0.18 0.127 0.374 0.37 0.604 0.433h0.268c0.41 0.090 0.872 0.027 1.255 0.14 0.68 0.219 1.294 0.537 1.844 0.882 1.679 1.066 3.059 2.578 3.996 4.382 0.153 0.295 0.22 0.565 0.36 0.872 0.268 0.633 0.6 1.271 0.872 1.882 0.268 0.604 0.527 1.219 0.912 1.719 0.192 0.268 0.962 0.408 1.307 0.548 0.255 0.115 0.652 0.22 0.882 0.36 0.441 0.268 0.87 0.575 1.284 0.87 0.211 0.146 0.849 0.466 0.887 0.725z"></path>
</svg>
