<!-- Generated by IcoMoon.io -->
<svg version="1.1" xmlns="http://www.w3.org/2000/svg" width="46" height="46" viewBox="0 0 46 46">
<title>node-dot-js</title>
<path fill="#393" d="M22.996 46c-0.615 0-1.229-0.161-1.767-0.473l-5.627-3.329c-0.839-0.47-0.429-0.636-0.153-0.734 1.121-0.389 1.347-0.479 2.545-1.158 0.125-0.071 0.289-0.044 0.418 0.033l4.324 2.566c0.157 0.086 0.378 0.086 0.521 0l16.857-9.729c0.157-0.090 0.257-0.27 0.257-0.456v-19.454c0-0.19-0.102-0.368-0.263-0.464l-16.849-9.721c-0.155-0.090-0.362-0.090-0.519 0l-16.846 9.723c-0.163 0.094-0.266 0.278-0.266 0.462v19.454c0 0.186 0.104 0.362 0.266 0.45l4.617 2.668c2.505 1.253 4.040-0.222 4.040-1.706v-19.207c0-0.272 0.218-0.485 0.491-0.485h2.137c0.266 0 0.489 0.215 0.489 0.485v19.207c0 3.345-1.821 5.261-4.991 5.261-0.974 0-1.742 0-3.883-1.056l-4.424-2.543c-1.092-0.631-1.767-1.811-1.767-3.074v-19.454c0-1.263 0.677-2.444 1.767-3.072l16.857-9.741c1.068-0.604 2.484-0.604 3.542 0l16.855 9.741c1.093 0.631 1.771 1.809 1.771 3.072v19.454c0 1.263-0.678 2.44-1.771 3.074l-16.855 9.733c-0.537 0.312-1.148 0.473-1.773 0.473zM36.606 26.82c0-3.642-2.461-4.611-7.642-5.296-5.234-0.692-5.767-1.050-5.767-2.275 0-1.012 0.45-2.363 4.328-2.363 3.463 0 4.74 0.746 5.265 3.080 0.046 0.22 0.247 0.381 0.473 0.381h2.187c0.136 0 0.265-0.059 0.357-0.155 0.092-0.103 0.142-0.236 0.128-0.376-0.339-4.021-3.011-5.896-8.41-5.896-4.807 0-7.674 2.028-7.674 5.43 0 3.69 2.852 4.709 7.465 5.165 5.52 0.541 5.947 1.347 5.947 2.432 0 1.884-1.512 2.687-5.064 2.687-4.46 0-5.441-1.119-5.771-3.339-0.038-0.238-0.241-0.412-0.485-0.412h-2.179c-0.27 0-0.487 0.215-0.487 0.485 0 2.84 1.545 6.225 8.922 6.225 5.344 0.002 8.406-2.101 8.406-5.775z"></path>
</svg>
