<!-- Generated by IcoMoon.io -->
<svg version="1.1" xmlns="http://www.w3.org/2000/svg" width="46" height="46" viewBox="0 0 46 46">
<title>react</title>
<path fill="#61dafb" d="M23 18.9c-2.264 0-4.1 1.836-4.1 4.1s1.836 4.1 4.1 4.1v0c2.264 0 4.1-1.836 4.1-4.1s-1.836-4.1-4.1-4.1v0zM11.515 31.155l-0.905-0.23c-6.743-1.704-10.611-4.596-10.611-7.933s3.868-6.229 10.611-7.933l0.905-0.228 0.255 0.897c0.783 2.674 1.671 4.949 2.73 7.126l-0.117-0.268 0.194 0.408-0.194 0.408c-0.944 1.911-1.832 4.186-2.532 6.542l-0.081 0.316zM10.191 17.154c-5.125 1.439-8.27 3.642-8.27 5.838 0 2.195 3.145 4.397 8.27 5.838 0.736-2.329 1.504-4.262 2.389-6.128l-0.124 0.29c-0.764-1.579-1.532-3.512-2.172-5.502l-0.093-0.336zM34.485 31.155l-0.255-0.899c-0.782-2.672-1.671-4.946-2.731-7.121l0.117 0.265-0.194-0.408 0.194-0.408c0.943-1.91 1.832-4.185 2.533-6.54l0.081-0.318 0.255-0.897 0.907 0.228c6.741 1.704 10.609 4.596 10.609 7.935s-3.868 6.229-10.609 7.933zM33.544 22.992c0.92 1.991 1.681 3.948 2.266 5.838 5.127-1.441 8.27-3.644 8.27-5.838 0-2.197-3.145-4.397-8.27-5.838-0.734 2.327-1.502 4.26-2.389 6.126l0.123-0.288zM10.178 17.145l-0.255-0.895c-1.896-6.681-1.321-11.469 1.577-13.141 2.842-1.641 7.406 0.297 12.188 5.206l0.652 0.669-0.652 0.669c-1.648 1.711-3.173 3.568-4.545 5.539l-0.097 0.148-0.259 0.37-0.45 0.038c-2.695 0.217-5.169 0.631-7.568 1.236l0.313-0.067zM13.812 4.437c-0.514 0-0.968 0.111-1.351 0.332-1.905 1.098-2.243 4.916-0.93 10.068 1.74-0.41 3.854-0.749 6.008-0.946l0.188-0.014c1.285-1.817 2.576-3.407 3.962-4.908l-0.029 0.032c-2.99-2.911-5.821-4.564-7.849-4.564zM32.19 43.464c-0.002 0-0.002 0 0 0-2.731 0-6.239-2.057-9.879-5.794l-0.652-0.669 0.652-0.669c1.647-1.711 3.172-3.569 4.543-5.541l0.097-0.148 0.259-0.37 0.449-0.038c2.695-0.215 5.171-0.629 7.571-1.234l-0.313 0.067 0.905-0.228 0.257 0.897c1.892 6.678 1.319 11.467-1.579 13.137-0.646 0.372-1.42 0.591-2.245 0.591-0.023 0-0.045-0-0.068-0l0.003 0zM24.34 36.984c2.99 2.911 5.821 4.564 7.849 4.564h0.002c0.512 0 0.968-0.111 1.349-0.332 1.905-1.098 2.244-4.918 0.93-10.070-1.742 0.41-3.856 0.75-6.012 0.947l-0.187 0.014c-1.283 1.818-2.574 3.409-3.96 4.91l0.029-0.032zM35.823 17.145l-0.905-0.228c-2.088-0.54-4.564-0.955-7.099-1.159l-0.159-0.010-0.448-0.038-0.259-0.37c-1.468-2.12-2.992-3.976-4.654-5.701l0.013 0.014-0.652-0.669 0.652-0.669c4.78-4.907 9.342-6.844 12.188-5.206 2.898 1.671 3.473 6.459 1.579 13.139zM28.271 13.877c2.189 0.199 4.268 0.523 6.199 0.96 1.315-5.152 0.976-8.97-0.93-10.068-1.894-1.094-5.453 0.583-9.2 4.232 1.356 1.468 2.646 3.059 3.832 4.729l0.099 0.147zM13.812 43.464c-0.020 0-0.043 0-0.066 0-0.825 0-1.6-0.219-2.267-0.603l0.022 0.012c-2.898-1.669-3.473-6.457-1.577-13.137l0.253-0.897 0.905 0.228c2.214 0.558 4.656 0.951 7.255 1.167l0.45 0.038 0.257 0.37c1.47 2.12 2.995 3.977 4.656 5.703l-0.014-0.014 0.652 0.669-0.652 0.669c-3.638 3.738-7.145 5.794-9.873 5.794zM11.531 31.146c-1.315 5.152-0.976 8.972 0.93 10.070 1.892 1.079 5.449-0.585 9.2-4.232-1.356-1.469-2.647-3.060-3.833-4.73l-0.1-0.148c-2.342-0.21-4.455-0.55-6.518-1.022l0.322 0.062zM23 32.349c-1.577 0-3.199-0.069-4.822-0.203l-0.45-0.038-0.259-0.37c-0.782-1.104-1.638-2.431-2.439-3.794l-0.149-0.273c-0.65-1.090-1.395-2.489-2.084-3.921l-0.151-0.349-0.192-0.408 0.192-0.408c0.839-1.781 1.584-3.18 2.383-4.544l-0.148 0.274c0.793-1.372 1.666-2.741 2.587-4.067l0.259-0.37 0.45-0.038c1.445-0.13 3.125-0.204 4.823-0.204s3.378 0.074 5.039 0.219l-0.215-0.015 0.449 0.038 0.257 0.37c1.691 2.395 3.298 5.128 4.675 7.992l0.149 0.345 0.194 0.408-0.194 0.408c-1.521 3.208-3.128 5.941-4.944 8.516l0.12-0.179-0.257 0.37-0.449 0.038c-1.623 0.134-3.247 0.203-4.824 0.203zM18.789 30.272c2.837 0.213 5.585 0.213 8.424 0 1.443-2.078 2.844-4.462 4.064-6.952l0.145-0.328c-1.361-2.815-2.763-5.2-4.33-7.461l0.119 0.181c-1.261-0.102-2.729-0.16-4.211-0.16s-2.95 0.058-4.403 0.172l0.192-0.012c-1.45 2.080-2.851 4.465-4.069 6.957l-0.142 0.323c1.367 2.817 2.768 5.202 4.333 7.466l-0.122-0.186z"></path>
</svg>
