<!-- Generated by IcoMoon.io -->
<svg version="1.1" xmlns="http://www.w3.org/2000/svg" width="46" height="46" viewBox="0 0 46 46">
<title>sass</title>
<path fill="#c69" d="M23 0c12.702 0 23 10.298 23 23s-10.298 23-23 23-23-10.298-23-23 10.298-23 23-23zM18.429 30.663c0.335 1.236 0.299 2.392-0.046 3.435l-0.125 0.345c-0.046 0.117-0.1 0.23-0.149 0.337-0.268 0.556-0.625 1.073-1.064 1.553-1.338 1.455-3.205 2.007-4.006 1.543-0.862-0.502-0.433-2.559 1.119-4.198 1.669-1.759 4.063-2.892 4.063-2.892v-0.006zM37.425 9.846c-1.039-4.088-7.814-5.432-14.226-3.153-3.812 1.355-7.943 3.484-10.912 6.262-3.532 3.299-4.094 6.174-3.862 7.375 0.818 4.238 6.626 7.009 9.014 9.066v0.011c-0.703 0.345-5.857 2.931-7.065 5.606-1.294 2.818 0.201 4.832 1.179 5.089 3.019 0.836 6.124-0.69 7.791-3.161 1.61-2.417 1.468-5.522 0.774-7.046 0.951-0.259 2.070-0.374 3.508-0.199 4.027 0.46 4.832 2.99 4.658 4.025-0.173 1.033-1.002 1.637-1.292 1.809-0.287 0.174-0.374 0.23-0.347 0.347 0.029 0.172 0.174 0.172 0.403 0.144 0.316-0.057 2.101-0.863 2.187-2.819 0.086-2.472-2.273-5.231-6.469-5.175-1.725 0.031-2.819 0.174-3.594 0.491-0.057-0.086-0.117-0.144-0.201-0.201-2.588-2.789-7.389-4.744-7.188-8.452 0.057-1.351 0.546-4.914 9.2-9.227 7.101-3.538 12.767-2.559 13.744-0.403 1.405 3.074-3.021 8.797-10.409 9.629-2.818 0.316-4.284-0.774-4.659-1.179-0.401-0.431-0.458-0.46-0.602-0.372-0.23 0.115-0.086 0.489 0 0.719 0.23 0.575 1.121 1.581 2.676 2.099 1.349 0.431 4.658 0.688 8.625-0.862 4.454-1.723 7.933-6.526 6.927-10.551z"></path>
</svg>
